<svg width="218" height="32" viewBox="0 0 218 32" fill="none" xmlns="http://www.w3.org/2000/svg">
<path d="M19.4865 17.3944C19.4865 20.5451 18.6931 22.8457 17.1065 24.2964C15.5198 25.7244 13.1738 26.4384 10.0685 26.4384C6.78179 26.4384 4.39046 25.6564 2.89446 24.0924C1.39845 22.5057 0.650455 20.0804 0.650455 16.8164V1.41439C0.650455 1.05172 0.797788 0.870387 1.09245 0.870387H4.32245C4.61712 0.870387 4.76445 1.04039 4.76445 1.38039V17.5304C4.76445 21.4291 6.63445 23.3784 10.3745 23.3784C14.1825 23.3784 16.0865 21.3951 16.0865 17.4284V1.38039C16.0865 1.04039 16.2225 0.870387 16.4945 0.870387H19.0785C19.3505 0.870387 19.4865 1.02905 19.4865 1.34639V17.3944ZM38.7267 26.0984C38.3641 26.0984 38.1827 25.9171 38.1827 25.5544V8.58839C38.1827 8.24839 38.3301 8.07839 38.6247 8.07839H41.3107C41.5827 8.07839 41.7187 8.22572 41.7187 8.52039V10.3904C41.7187 10.5264 41.7414 10.6057 41.7867 10.6284C41.8547 10.6511 41.9454 10.6057 42.0587 10.4924C43.2374 9.54039 44.2801 8.84905 45.1867 8.41839C46.0934 7.96505 47.0794 7.73839 48.1447 7.73839C49.8447 7.73839 51.1707 8.21439 52.1227 9.16639C53.0974 10.0957 53.5847 11.3537 53.5847 12.9404V25.4864C53.5847 25.8944 53.3921 26.0984 53.0067 26.0984H50.4907C50.1507 26.0984 49.9807 25.9171 49.9807 25.5544V13.6544C49.9807 12.6344 49.7087 11.8524 49.1647 11.3084C48.6434 10.7417 47.8501 10.4584 46.7847 10.4584C45.9234 10.4584 45.1187 10.6624 44.3707 11.0704C43.6454 11.4557 42.7841 12.1017 41.7867 13.0084V25.5204C41.7867 25.7244 41.7301 25.8717 41.6167 25.9624C41.5261 26.0531 41.3674 26.0984 41.1407 26.0984H38.7267ZM117.019 25.4524C117.019 25.7017 116.963 25.8717 116.849 25.9624C116.759 26.0531 116.577 26.0984 116.305 26.0984H113.993C113.767 26.0984 113.608 26.0644 113.517 25.9964C113.427 25.9057 113.381 25.7584 113.381 25.5544L113.449 1.38039C113.449 1.04039 113.597 0.870387 113.891 0.870387H116.577C116.872 0.870387 117.019 1.04039 117.019 1.38039V25.4524ZM138.169 18.3464C138.169 19.3664 138.407 20.2957 138.883 21.1344C139.381 21.9504 140.05 22.6077 140.889 23.1064C141.727 23.5824 142.645 23.8204 143.643 23.8204C144.685 23.8204 145.615 23.6051 146.431 23.1744C147.247 22.7437 147.995 22.0751 148.675 21.1684C148.743 21.0777 148.822 21.0324 148.913 21.0324C149.026 21.0324 149.117 21.0551 149.185 21.1004L150.919 21.9164C151.032 21.9844 151.089 22.0751 151.089 22.1884C151.089 22.2564 151.055 22.3471 150.987 22.4604C150.035 23.8657 148.947 24.8857 147.723 25.5204C146.499 26.1324 145.014 26.4384 143.269 26.4384C141.569 26.4384 140.05 26.0531 138.713 25.2824C137.375 24.5117 136.333 23.4351 135.585 22.0524C134.837 20.6471 134.463 19.0604 134.463 17.2924C134.463 15.3884 134.848 13.7111 135.619 12.2604C136.389 10.8097 137.432 9.69906 138.747 8.92839C140.084 8.13505 141.569 7.73839 143.201 7.73839C144.878 7.73839 146.351 8.11239 147.621 8.86039C148.89 9.58572 149.865 10.6511 150.545 12.0564C151.247 13.4617 151.599 15.1277 151.599 17.0544V17.1904C151.599 17.3944 151.565 17.5531 151.497 17.6664C151.451 17.7571 151.315 17.8024 151.089 17.8024H138.509C138.282 17.8024 138.169 17.9837 138.169 18.3464ZM147.451 15.6604C147.677 15.6604 147.825 15.6264 147.893 15.5584C147.983 15.4904 148.029 15.3657 148.029 15.1844C148.029 14.3004 147.836 13.4731 147.451 12.7024C147.088 11.9317 146.544 11.3197 145.819 10.8664C145.116 10.3904 144.277 10.1524 143.303 10.1524C142.283 10.1524 141.387 10.4131 140.617 10.9344C139.846 11.4331 139.245 12.1017 138.815 12.9404C138.407 13.7564 138.214 14.6517 138.237 15.6264L147.451 15.6604ZM179.106 24.0584C177.451 25.6451 175.513 26.4384 173.292 26.4384C171.546 26.4384 170.164 25.9964 169.144 25.1124C168.146 24.2057 167.648 23.0044 167.648 21.5084C167.648 19.6724 168.441 18.2104 170.028 17.1224C171.637 16.0344 173.915 15.4224 176.862 15.2864L179.072 15.1164C179.434 15.0711 179.616 14.9011 179.616 14.6064V13.7564C179.616 12.6457 179.276 11.7731 178.596 11.1384C177.916 10.4811 176.986 10.1524 175.808 10.1524C173.949 10.1524 172.464 10.9911 171.354 12.6684C171.286 12.8044 171.206 12.8951 171.116 12.9404C171.048 12.9631 170.934 12.9517 170.776 12.9064L168.464 12.2264C168.328 12.1811 168.26 12.0904 168.26 11.9544C168.26 11.8637 168.294 11.7391 168.362 11.5804C168.996 10.3564 169.96 9.41572 171.252 8.75839C172.566 8.07839 174.142 7.73839 175.978 7.73839C178.358 7.73839 180.137 8.24839 181.316 9.26839C182.494 10.2884 183.084 11.7051 183.084 13.5184V25.5204C183.084 25.7471 183.038 25.9057 182.948 25.9964C182.88 26.0644 182.755 26.0984 182.574 26.0984H180.296C179.978 26.0984 179.797 25.8717 179.752 25.4184L179.684 24.1264C179.638 23.9451 179.57 23.8544 179.48 23.8544C179.412 23.8544 179.287 23.9224 179.106 24.0584ZM179.616 17.6324C179.616 17.2697 179.457 17.0997 179.14 17.1224L177.304 17.2584C175.422 17.3717 173.926 17.7571 172.816 18.4144C171.728 19.0491 171.184 19.9331 171.184 21.0664C171.184 21.9504 171.501 22.6531 172.136 23.1744C172.77 23.6731 173.62 23.9224 174.686 23.9224C175.91 23.9224 177.066 23.5031 178.154 22.6644C179.128 21.8711 179.616 21.0777 179.616 20.2844V17.6324ZM204.19 8.07839C204.575 8.07839 204.768 8.25972 204.768 8.62239V9.94839C204.768 10.1297 204.813 10.2204 204.904 10.2204C204.949 10.2204 205.051 10.1637 205.21 10.0504C205.89 9.37039 206.604 8.81505 207.352 8.38439C208.122 7.95372 209.142 7.73839 210.412 7.73839C211.817 7.73839 213.064 8.07839 214.152 8.75839C215.262 9.43839 216.135 10.4584 216.77 11.8184C217.404 13.1784 217.722 14.8557 217.722 16.8504C217.722 18.8904 217.404 20.6357 216.77 22.0864C216.135 23.5144 215.24 24.6024 214.084 25.3504C212.928 26.0757 211.59 26.4384 210.072 26.4384C208.236 26.4384 206.66 25.8717 205.346 24.7384C205.164 24.5797 205.028 24.5004 204.938 24.5004C204.824 24.5004 204.768 24.6477 204.768 24.9424V31.2324C204.768 31.5497 204.632 31.7084 204.36 31.7084H201.606C201.311 31.7084 201.164 31.5497 201.164 31.2324V8.69039C201.164 8.46372 201.209 8.30505 201.3 8.21439C201.413 8.12372 201.583 8.07839 201.81 8.07839H204.19ZM204.768 21.9164C205.425 22.5964 206.082 23.1177 206.74 23.4804C207.42 23.8204 208.156 23.9904 208.95 23.9904C210.514 23.9904 211.749 23.3897 212.656 22.1884C213.585 20.9644 214.05 19.1851 214.05 16.8504C214.05 14.5837 213.596 12.9064 212.69 11.8184C211.783 10.7304 210.593 10.1864 209.12 10.1864C208.304 10.1864 207.556 10.3677 206.876 10.7304C206.218 11.0704 205.697 11.5237 205.312 12.0904C204.949 12.6344 204.768 13.1784 204.768 13.7224V21.9164Z" fill="#D94A3D"/>
</svg>
